<svg width="25" height="25" viewBox="0 0 25 25" fill="none" xmlns="http://www.w3.org/2000/svg">
<path d="M17.2512 2.36621H7.25122C4.4898 2.36621 2.25122 4.60479 2.25122 7.36621V17.3662C2.25122 20.1276 4.4898 22.3662 7.25122 22.3662H17.2512C20.0126 22.3662 22.2512 20.1276 22.2512 17.3662V7.36621C22.2512 4.60479 20.0126 2.36621 17.2512 2.36621Z" stroke="#F2958E" stroke-width="2" stroke-linecap="round" stroke-linejoin="round"/>
<path d="M16.2548 11.7365C16.3782 12.5688 16.2361 13.4187 15.8486 14.1655C15.4611 14.9123 14.848 15.5179 14.0965 15.8962C13.3449 16.2744 12.4933 16.4061 11.6626 16.2724C10.832 16.1388 10.0646 15.7466 9.46967 15.1517C8.87475 14.5568 8.48257 13.7894 8.3489 12.9587C8.21524 12.1281 8.3469 11.2764 8.72516 10.5249C9.10342 9.77337 9.70902 9.16025 10.4558 8.77275C11.2026 8.38525 12.0526 8.2431 12.8848 8.36651C13.7338 8.4924 14.5197 8.88798 15.1265 9.49482C15.7334 10.1017 16.1289 10.8876 16.2548 11.7365Z" stroke="#F2958E" stroke-width="2" stroke-linecap="round" stroke-linejoin="round"/>
<path d="M17.7512 6.86621H17.7612" stroke="#F2958E" stroke-width="2" stroke-linecap="round" stroke-linejoin="round"/>
</svg>
