<svg width="25" height="25" viewBox="0 0 25 25" fill="none" xmlns="http://www.w3.org/2000/svg">
<g clip-path="url(#clip0_0_239)">
<path d="M23.2512 3.3665C22.2936 4.04198 21.2333 4.55861 20.1112 4.8965C19.509 4.20401 18.7086 3.71319 17.8183 3.49043C16.928 3.26766 15.9907 3.3237 15.1333 3.65095C14.2759 3.97821 13.5397 4.5609 13.0242 5.32022C12.5087 6.07953 12.2389 6.97884 12.2512 7.8965V8.8965C10.4939 8.94207 8.75249 8.55231 7.18223 7.76195C5.61196 6.97158 4.26154 5.80514 3.25122 4.3665C3.25122 4.3665 -0.748779 13.3665 8.25122 17.3665C6.19175 18.7645 3.73838 19.4654 1.25122 19.3665C10.2512 24.3665 21.2512 19.3665 21.2512 7.8665C21.2503 7.58795 21.2235 7.3101 21.1712 7.0365C22.1918 6.02999 22.912 4.75921 23.2512 3.3665V3.3665Z" stroke="#F2958E" stroke-width="2" stroke-linecap="round" stroke-linejoin="round"/>
</g>
<defs>
<clipPath id="clip0_0_239">
<rect width="24" height="24" fill="white" transform="translate(0.251221 0.366211)"/>
</clipPath>
</defs>
</svg>
