<svg width="81" height="81" viewBox="0 0 81 81" fill="none" xmlns="http://www.w3.org/2000/svg">
<circle cx="40.2515" cy="40.7808" r="40" fill="white" fill-opacity="0.7"/>
<rect x="16.2515" y="17.7808" width="48" height="48" rx="24" fill="#1E3A6D"/>
<path d="M34.9181 29.7808C31.2362 29.7808 28.2515 32.7655 28.2515 36.4474C28.2515 40.1293 31.2362 43.1141 34.9181 43.1141C38.6 43.1141 41.5848 40.1293 41.5848 36.4474C41.5848 32.7655 38.6 29.7808 34.9181 29.7808Z" fill="white"/>
<path d="M50.0674 35.5501C49.5629 35.293 49.0386 35.1979 48.5115 35.1549C48.0121 35.1141 47.4057 35.1141 46.7029 35.1141L44.2515 35.1141V36.4474C44.2515 41.6021 40.0728 45.7808 34.9181 45.7808H33.5848L33.5848 48.2322C33.5848 48.935 33.5848 49.5414 33.6256 50.0408C33.6686 50.5679 33.7637 51.0922 34.0208 51.5967C34.4043 52.3494 35.0162 52.9613 35.7688 53.3448C36.2733 53.6018 36.7976 53.6969 37.3248 53.74C37.8242 53.7808 38.4305 53.7808 39.1333 53.7808H46.7028C47.4056 53.7808 48.0121 53.7808 48.5115 53.74C49.0386 53.6969 49.5629 53.6018 50.0674 53.3448C50.8201 52.9613 51.432 52.3494 51.8155 51.5967C52.0725 51.0922 52.1676 50.5679 52.2107 50.0408C52.2515 49.5414 52.2515 48.9351 52.2515 48.2323V40.6627C52.2515 39.9599 52.2515 39.3535 52.2107 38.8541C52.1676 38.3269 52.0725 37.8026 51.8155 37.2981C51.432 36.5455 50.8201 35.9336 50.0674 35.5501Z" fill="white"/>
</svg>
