<svg width="81" height="81" viewBox="0 0 81 81" fill="none" xmlns="http://www.w3.org/2000/svg">
<circle cx="40.2515" cy="40.7808" r="40" fill="white" fill-opacity="0.7"/>
<rect x="16.2515" y="16.7808" width="48" height="48" rx="24" fill="#7BCAD9"/>
<path d="M48.2515 36.7808C51.197 36.7808 53.5848 34.393 53.5848 31.4474C53.5848 28.5019 51.197 26.1141 48.2515 26.1141C45.3059 26.1141 42.9181 28.5019 42.9181 31.4474C42.9181 31.9504 42.9877 32.4371 43.1179 32.8984L36.0402 37.0271C35.0737 36.0516 33.7331 35.4474 32.2515 35.4474C29.3059 35.4474 26.9181 37.8353 26.9181 40.7808C26.9181 43.7263 29.3059 46.1141 32.2515 46.1141C33.7331 46.1141 35.0737 45.5099 36.0402 44.5345L43.1179 48.6631C42.9877 49.1244 42.9181 49.6111 42.9181 50.1141C42.9181 53.0596 45.3059 55.4474 48.2515 55.4474C51.197 55.4474 53.5848 53.0596 53.5848 50.1141C53.5848 47.1686 51.197 44.7808 48.2515 44.7808C46.7698 44.7808 45.4292 45.385 44.4627 46.3604L37.385 42.2318C37.5152 41.7704 37.5848 41.2837 37.5848 40.7808C37.5848 40.2778 37.5152 39.7911 37.385 39.3298L44.4627 35.2011C45.4292 36.1766 46.7698 36.7808 48.2515 36.7808Z" fill="white"/>
</svg>
