<svg width="81" height="81" viewBox="0 0 81 81" fill="none" xmlns="http://www.w3.org/2000/svg">
<circle cx="40.2515" cy="40.7808" r="40" fill="white" fill-opacity="0.7"/>
<rect x="16.2515" y="17.7808" width="48" height="48" rx="24" fill="#F2958E"/>
<path fill-rule="evenodd" clip-rule="evenodd" d="M25.5848 41.7808C25.5848 33.6806 32.1513 27.1141 40.2515 27.1141C48.3516 27.1141 54.9181 33.6806 54.9181 41.7808C54.9181 49.8809 48.3516 56.4474 40.2515 56.4474C32.1513 56.4474 25.5848 49.8809 25.5848 41.7808ZM40.2515 31.1141C40.9878 31.1141 41.5848 31.7111 41.5848 32.4474V37.6326C41.5848 38.369 40.9878 38.966 40.2515 38.966C39.5151 38.966 38.9181 38.369 38.9181 37.6326V32.4474C38.9181 31.7111 39.5151 31.1141 40.2515 31.1141ZM49.5848 43.1141C50.3212 43.1141 50.9181 42.5172 50.9181 41.7808C50.9181 41.0444 50.3212 40.4474 49.5848 40.4474H44.3996C43.6632 40.4474 43.0663 41.0444 43.0663 41.7808C43.0663 42.5171 43.6632 43.1141 44.3996 43.1141H49.5848ZM40.2515 44.5956C40.9878 44.5956 41.5848 45.1925 41.5848 45.9289V51.1141C41.5848 51.8505 40.9878 52.4474 40.2515 52.4474C39.5151 52.4474 38.9181 51.8505 38.9181 51.1141V45.9289C38.9181 45.1925 39.5151 44.5956 40.2515 44.5956ZM36.1033 43.1141C36.8397 43.1141 37.4366 42.5172 37.4366 41.7808C37.4366 41.0444 36.8397 40.4474 36.1033 40.4474H30.9181C30.1817 40.4474 29.5848 41.0444 29.5848 41.7808C29.5848 42.5171 30.1817 43.1141 30.9181 43.1141H36.1033Z" fill="white"/>
</svg>
