<svg width="81" height="81" viewBox="0 0 81 81" fill="none" xmlns="http://www.w3.org/2000/svg">
<circle cx="40.2515" cy="40.7808" r="40" fill="white" fill-opacity="0.7"/>
<rect x="16.2515" y="17.7808" width="48" height="48" rx="24" fill="#E72368"/>
<path d="M34.5283 34.172C34.7782 33.6498 34.9181 33.0649 34.9181 32.4474C34.9181 30.2383 33.1273 28.4474 30.9181 28.4474C28.709 28.4474 26.9181 30.2383 26.9181 32.4474C26.9181 34.6566 28.709 36.4474 30.9181 36.4474C31.5357 36.4474 32.1205 36.3075 32.6427 36.0576L34.6893 38.1042C33.9913 39.1581 33.5848 40.422 33.5848 41.7808C33.5848 43.1395 33.9913 44.4034 34.6893 45.4573L32.9422 47.2044C32.7219 47.1455 32.4903 47.1141 32.2515 47.1141C30.7787 47.1141 29.5848 48.308 29.5848 49.7808C29.5848 51.2535 30.7787 52.4474 32.2515 52.4474C33.7242 52.4474 34.9181 51.2535 34.9181 49.7808C34.9181 49.5419 34.8867 49.3103 34.8278 49.09L36.5749 47.3429C37.6288 48.0409 38.8927 48.4474 40.2515 48.4474C41.6102 48.4474 42.8741 48.0409 43.928 47.3429L45.9746 49.3895C45.7247 49.9117 45.5848 50.4966 45.5848 51.1141C45.5848 53.3232 47.3756 55.1141 49.5848 55.1141C51.7939 55.1141 53.5848 53.3232 53.5848 51.1141C53.5848 48.9049 51.7939 47.1141 49.5848 47.1141C48.9673 47.1141 48.3824 47.254 47.8602 47.5039L45.8136 45.4573C46.5116 44.4034 46.9181 43.1395 46.9181 41.7808C46.9181 40.422 46.5116 39.1581 45.8136 38.1042L47.5607 36.3571C47.781 36.416 48.0126 36.4474 48.2515 36.4474C49.7242 36.4474 50.9181 35.2535 50.9181 33.7808C50.9181 32.308 49.7242 31.1141 48.2515 31.1141C46.7787 31.1141 45.5848 32.308 45.5848 33.7808C45.5848 34.0196 45.6162 34.2512 45.6751 34.4715L43.928 36.2186C42.8741 35.5206 41.6102 35.1141 40.2515 35.1141C38.8927 35.1141 37.6288 35.5206 36.5749 36.2186L34.5283 34.172Z" fill="white"/>
</svg>
